<svg width="155" height="29" viewBox="0 0 155 29" fill="none" xmlns="http://www.w3.org/2000/svg">
<path d="M10.146 21.27C8.406 21.27 6.912 20.67 5.664 19.47C4.428 18.27 3.81 16.65 3.81 14.61C3.81 13.242 4.122 12.042 4.746 11.01C5.37 9.978 6.156 9.216 7.104 8.724C8.052 8.22 9.066 7.968 10.146 7.968C11.586 7.968 12.798 8.334 13.782 9.066C14.778 9.786 15.438 10.77 15.762 12.018L14.124 12.594C13.884 11.634 13.422 10.896 12.738 10.38C12.054 9.852 11.19 9.588 10.146 9.588C8.898 9.588 7.83 10.032 6.942 10.92C6.054 11.796 5.61 13.026 5.61 14.61C5.61 16.194 6.054 17.43 6.942 18.318C7.83 19.206 8.898 19.65 10.146 19.65C11.19 19.65 12.06 19.374 12.756 18.822C13.452 18.258 13.938 17.514 14.214 16.59L15.78 17.166C15.432 18.402 14.76 19.398 13.764 20.154C12.78 20.898 11.574 21.27 10.146 21.27ZM23.1144 19.956C22.8864 20.388 22.5384 20.718 22.0704 20.946C21.6024 21.162 21.0984 21.27 20.5584 21.27C19.5744 21.27 18.7884 20.946 18.2004 20.298C17.6124 19.638 17.3184 18.804 17.3184 17.796V12.342H19.0104V17.544C19.0104 18.192 19.1664 18.726 19.4784 19.146C19.8024 19.566 20.3004 19.776 20.9724 19.776C21.6444 19.776 22.1544 19.578 22.5024 19.182C22.8504 18.774 23.0244 18.234 23.0244 17.562V12.342H24.7164V19.398C24.7164 19.962 24.7464 20.496 24.8064 21H23.1864C23.1384 20.736 23.1144 20.388 23.1144 19.956ZM26.6137 18.75L28.1437 18.21C28.2037 18.678 28.4077 19.068 28.7557 19.38C29.1037 19.68 29.5717 19.83 30.1597 19.83C30.6157 19.83 30.9757 19.722 31.2397 19.506C31.5037 19.278 31.6357 19.002 31.6357 18.678C31.6357 18.102 31.2637 17.73 30.5197 17.562L29.0437 17.238C28.3717 17.094 27.8437 16.806 27.4597 16.374C27.0757 15.942 26.8837 15.42 26.8837 14.808C26.8837 14.064 27.1837 13.422 27.7837 12.882C28.3957 12.342 29.1217 12.072 29.9617 12.072C30.5137 12.072 31.0057 12.156 31.4377 12.324C31.8697 12.48 32.2057 12.69 32.4457 12.954C32.6857 13.218 32.8657 13.464 32.9857 13.692C33.1057 13.92 33.1957 14.154 33.2557 14.394L31.7617 14.952C31.7377 14.808 31.6957 14.67 31.6357 14.538C31.5757 14.394 31.4797 14.238 31.3477 14.07C31.2277 13.902 31.0477 13.77 30.8077 13.674C30.5677 13.566 30.2857 13.512 29.9617 13.512C29.5417 13.512 29.1937 13.626 28.9177 13.854C28.6537 14.082 28.5217 14.352 28.5217 14.664C28.5217 15.216 28.8517 15.564 29.5117 15.708L30.9157 16.014C31.6837 16.182 32.2717 16.494 32.6797 16.95C33.0997 17.394 33.3097 17.94 33.3097 18.588C33.3097 19.272 33.0277 19.89 32.4637 20.442C31.9117 20.994 31.1377 21.27 30.1417 21.27C29.0737 21.27 28.2397 21.006 27.6397 20.478C27.0397 19.938 26.6977 19.362 26.6137 18.75ZM37.6504 9.606V12.342H39.5224V13.872H37.6504V18.372C37.6504 18.78 37.7404 19.08 37.9204 19.272C38.1124 19.464 38.4244 19.56 38.8564 19.56C39.1084 19.56 39.3304 19.536 39.5224 19.488V20.928C39.2344 21.036 38.8504 21.09 38.3704 21.09C37.6264 21.09 37.0384 20.874 36.6064 20.442C36.1744 20.01 35.9584 19.404 35.9584 18.624V13.872H34.3024V12.342H34.7704C35.2144 12.342 35.5444 12.222 35.7604 11.982C35.9884 11.73 36.1024 11.406 36.1024 11.01V9.606H37.6504ZM43.295 18.948C43.823 19.488 44.465 19.758 45.221 19.758C45.977 19.758 46.613 19.488 47.129 18.948C47.657 18.396 47.921 17.634 47.921 16.662C47.921 15.702 47.657 14.952 47.129 14.412C46.613 13.86 45.977 13.584 45.221 13.584C44.465 13.584 43.823 13.86 43.295 14.412C42.779 14.952 42.521 15.702 42.521 16.662C42.521 17.634 42.779 18.396 43.295 18.948ZM42.035 13.386C42.875 12.51 43.937 12.072 45.221 12.072C46.505 12.072 47.561 12.51 48.389 13.386C49.229 14.25 49.649 15.342 49.649 16.662C49.649 17.994 49.235 19.098 48.407 19.974C47.579 20.838 46.517 21.27 45.221 21.27C43.925 21.27 42.863 20.838 42.035 19.974C41.207 19.098 40.793 17.994 40.793 16.662C40.793 15.342 41.207 14.25 42.035 13.386ZM53.3077 21H51.6337V12.342H53.2537V13.494C53.5177 13.038 53.8897 12.69 54.3697 12.45C54.8497 12.21 55.3537 12.09 55.8817 12.09C56.4457 12.09 56.9617 12.228 57.4297 12.504C57.8977 12.78 58.2457 13.188 58.4737 13.728C59.0737 12.636 60.0397 12.09 61.3717 12.09C62.1997 12.09 62.9017 12.372 63.4777 12.936C64.0657 13.5 64.3597 14.316 64.3597 15.384V21H62.6857V15.564C62.6857 14.964 62.5297 14.484 62.2177 14.124C61.9177 13.764 61.4617 13.584 60.8497 13.584C60.2617 13.584 59.7817 13.794 59.4097 14.214C59.0377 14.622 58.8517 15.138 58.8517 15.762V21H57.1597V15.564C57.1597 14.964 57.0037 14.484 56.6917 14.124C56.3917 13.764 55.9357 13.584 55.3237 13.584C54.7237 13.584 54.2377 13.788 53.8657 14.196C53.4937 14.604 53.3077 15.132 53.3077 15.78V21ZM72.9893 18.948C73.5173 19.488 74.1593 19.758 74.9153 19.758C75.6713 19.758 76.3073 19.488 76.8233 18.948C77.3513 18.396 77.6153 17.634 77.6153 16.662C77.6153 15.702 77.3513 14.952 76.8233 14.412C76.3073 13.86 75.6713 13.584 74.9153 13.584C74.1593 13.584 73.5173 13.86 72.9893 14.412C72.4733 14.952 72.2153 15.702 72.2153 16.662C72.2153 17.634 72.4733 18.396 72.9893 18.948ZM71.7293 13.386C72.5693 12.51 73.6313 12.072 74.9153 12.072C76.1993 12.072 77.2553 12.51 78.0833 13.386C78.9233 14.25 79.3433 15.342 79.3433 16.662C79.3433 17.994 78.9293 19.098 78.1013 19.974C77.2733 20.838 76.2113 21.27 74.9153 21.27C73.6193 21.27 72.5573 20.838 71.7293 19.974C70.9013 19.098 70.4873 17.994 70.4873 16.662C70.4873 15.342 70.9013 14.25 71.7293 13.386ZM86.1341 12.252V14.052C85.8821 14.016 85.6361 13.998 85.3961 13.998C83.8121 13.998 83.0201 14.886 83.0201 16.662V21H81.3281V12.342H82.9841V13.854C83.5121 12.75 84.3761 12.198 85.5761 12.198C85.7681 12.198 85.9541 12.216 86.1341 12.252ZM88.6776 16.644C88.6776 17.556 88.8996 18.3 89.3436 18.876C89.7996 19.452 90.4236 19.74 91.2156 19.74C91.9716 19.74 92.5776 19.446 93.0336 18.858C93.4896 18.27 93.7176 17.52 93.7176 16.608C93.7176 15.708 93.4956 14.982 93.0516 14.43C92.6076 13.878 92.0016 13.602 91.2336 13.602C90.4656 13.602 89.8476 13.884 89.3796 14.448C88.9116 15.012 88.6776 15.744 88.6776 16.644ZM93.7356 19.83V19.686C93.5076 20.13 93.1596 20.502 92.6916 20.802C92.2356 21.09 91.6896 21.234 91.0536 21.234C89.8176 21.234 88.8216 20.802 88.0656 19.938C87.3216 19.062 86.9496 17.964 86.9496 16.644C86.9496 15.384 87.3336 14.316 88.1016 13.44C88.8696 12.552 89.8536 12.108 91.0536 12.108C91.7616 12.108 92.3376 12.252 92.7816 12.54C93.2256 12.816 93.5316 13.158 93.6996 13.566V7.968H95.3736V19.398C95.3736 19.986 95.4036 20.52 95.4636 21H93.8256C93.7656 20.664 93.7356 20.274 93.7356 19.83ZM99.1696 15.78H103.904C103.88 15.132 103.664 14.604 103.256 14.196C102.848 13.776 102.272 13.566 101.528 13.566C100.856 13.566 100.304 13.788 99.8716 14.232C99.4396 14.664 99.2056 15.18 99.1696 15.78ZM104.156 18.03L105.614 18.534C105.362 19.338 104.894 19.998 104.21 20.514C103.526 21.018 102.698 21.27 101.726 21.27C100.514 21.27 99.4816 20.856 98.6296 20.028C97.7896 19.188 97.3696 18.06 97.3696 16.644C97.3696 15.324 97.7776 14.232 98.5936 13.368C99.4096 12.504 100.382 12.072 101.51 12.072C102.818 12.072 103.838 12.486 104.57 13.314C105.302 14.13 105.668 15.228 105.668 16.608C105.668 16.824 105.656 17.004 105.632 17.148H99.1156C99.1276 17.916 99.3796 18.546 99.8716 19.038C100.376 19.53 100.994 19.776 101.726 19.776C102.962 19.776 103.772 19.194 104.156 18.03ZM112.453 12.252V14.052C112.201 14.016 111.955 13.998 111.715 13.998C110.131 13.998 109.339 14.886 109.339 16.662V21H107.647V12.342H109.303V13.854C109.831 12.75 110.695 12.198 111.895 12.198C112.087 12.198 112.273 12.216 112.453 12.252Z" fill="white"/>
<path d="M135 19.5L128 12.5L142 12.5L135 19.5Z" fill="white"/>
</svg>
