<svg width="18" height="18" viewBox="0 0 18 18" fill="none" xmlns="http://www.w3.org/2000/svg">
<path fill-rule="evenodd" clip-rule="evenodd" d="M0.291172 16.2446C-0.11081 16.6597 -0.0949593 17.3172 0.326576 17.713C0.748112 18.1089 1.41571 18.0933 1.81769 17.6782L8.99984 10.2614L16.182 17.6782C16.584 18.0933 17.2516 18.1089 17.6731 17.713C18.0946 17.3172 18.1105 16.6597 17.7085 16.2446L10.4572 8.75641L17.2367 1.75538C17.6387 1.34026 17.6229 0.682838 17.2013 0.286978C16.7798 -0.108882 16.1122 -0.0932724 15.7102 0.321842L8.99984 7.25145L2.28946 0.321845C1.88747 -0.0932696 1.21988 -0.108879 0.798345 0.28698C0.376809 0.682841 0.360958 1.34027 0.76294 1.75538L7.54249 8.75641L0.291172 16.2446Z" fill="#B3B3B3"/>
</svg>
